<svg xmlns="http://www.w3.org/2000/svg" width="329.953" height="45.528" viewBox="0 0 329.953 45.528"><path d="M0 44.977V13.442h6.766v4.465H9v-2.235h2.301v-2.23h18v4.465H13.535v2.3h-2.234v2.235H9v2.23H6.766v20.305zM30.867 45.293V.219h18v4.535h-11.23v36h11.23v4.539zM108.418 18v-4.465h11.231v27h4.535v4.536h-15.766v-4.536h4.535V18zm4.535-8.929V0h6.696v9.071zM129.684 15.762v-2.231h20.23v2.231h2.235v2.234h2.3v4.535h-6.765v-2.23h-2.305v-2.305h-11.23v2.305h-2.235v18h2.235v2.23h11.23v-2.23h2.305v-2.305h6.765v4.535h-2.3v2.231h-2.235v2.305h-20.23v-2.305h-2.305v-2.231h-2.23V17.996h2.23v-2.234zM273.633 16.059v-2.231h20.234v2.231h2.231v2.23h2.304v13.539h-22.535v6.766h2.231v2.234h13.535v-2.234h6.769v4.465h-2.304v2.305h-22.465v-2.305h-2.305v-2.231h-2.23V18.289h2.23v-2.23zm15.695 4.535v-2.305h-11.23v2.305h-2.231v6.77h15.766v-6.77zM300.649 45.332V13.797h6.769v4.465h2.231v-2.234h2.304v-2.231h18v4.465h-15.769v2.301h-2.231v2.234h-2.304v2.231h-2.231v20.304zM187.492 45.52V.449h18v4.536h-11.234v36h11.234v4.535zM211.121 16.223v-2.231h20.231v2.231h2.234v2.234h2.305v22.535h-2.305v2.231h-2.234v2.305h-20.231v-2.305h-2.304v-2.231h-2.231V18.457h2.231v-2.234zm15.696 4.539v-2.305h-11.231v2.305h-2.234v18h2.234v2.23h11.231v-2.23h2.304v-18zM260.231 13.934V.399h6.765v45.07h-24.765v-2.305h-2.305v-2.23h-2.234V18.399h2.234v-2.235h2.305v-2.23zm0 27V18.399h-13.539v2.3h-2.231v18h2.231v2.235zM161.582 15.739v-2.231h20.235v2.231h2.23v2.234h2.305v13.535h-22.535v6.77h2.23v2.23h13.535v-2.23h6.77v4.461h-2.305v2.304h-22.465v-2.304h-2.301v-2.231h-2.234V17.973h2.234v-2.234zm15.699 4.539v-2.305h-11.234v2.305h-2.23v6.765h15.765v-6.765zM77.504 44.992V13.457h6.77v4.461h2.23v-2.23h2.305v-2.231h18v4.461h-15.77v2.305h-2.23v2.234h-2.305v2.231h-2.23v20.304z" style="fill:#00a020;fill-opacity:1;fill-rule:nonzero;stroke:none"/></svg>